<svg xmlns="http://www.w3.org/2000/svg" viewBox="0 0 1400 420" role="img" aria-label="Astana city panorama">
  <defs>
    <linearGradient id="sky" x1="0" y1="0" x2="0" y2="1">
      <stop offset="0%" stop-color="#5eb8e8"/>
      <stop offset="55%" stop-color="#9fd4f0"/>
      <stop offset="100%" stop-color="#e8f4fc"/>
    </linearGradient>
    <linearGradient id="ground" x1="0" y1="0" x2="0" y2="1">
      <stop offset="0%" stop-color="#d4dce8"/>
      <stop offset="100%" stop-color="#eef2f8"/>
    </linearGradient>
    <linearGradient id="gold" x1="0" y1="0" x2="0" y2="1">
      <stop offset="0%" stop-color="#ffe566"/>
      <stop offset="100%" stop-color="#d4a012"/>
    </linearGradient>
  </defs>
  <rect width="1400" height="420" fill="url(#sky)"/>
  <ellipse cx="1180" cy="95" rx="70" ry="70" fill="#fff9e0" opacity="0.95"/>
  <rect y="300" width="1400" height="120" fill="url(#ground)"/>
  <!-- Baiterek -->
  <ellipse cx="700" cy="298" rx="52" ry="12" fill="#b8c4d4" opacity="0.6"/>
  <rect x="688" y="120" width="24" height="178" rx="4" fill="url(#gold)"/>
  <ellipse cx="700" cy="118" rx="36" ry="22" fill="url(#gold)" stroke="#c9a020" stroke-width="2"/>
  <ellipse cx="700" cy="118" rx="18" ry="11" fill="#5eb8e8" opacity="0.85"/>
  <!-- Left towers -->
  <rect x="180" y="160" width="90" height="140" fill="#8fa3bc" opacity="0.9"/>
  <rect x="190" y="140" width="70" height="30" fill="#a8bcd4"/>
  <rect x="300" y="190" width="60" height="110" fill="#7d94b0"/>
  <rect x="420" y="200" width="110" height="100" fill="#9aadc4" rx="4"/>
  <!-- Right towers -->
  <rect x="880" y="170" width="75" height="130" fill="#8fa3bc"/>
  <rect x="990" y="150" width="95" height="150" fill="#7d94b0"/>
  <rect x="1110" y="185" width="120" height="115" fill="#9aadc4" rx="3"/>
  <rect x="1240" y="210" width="80" height="90" fill="#8fa3bc"/>
  <!-- Flag accents -->
  <rect x="0" y="0" width="1400" height="6" fill="#00afc7"/>
  <rect x="0" y="6" width="1400" height="6" fill="#fec50c"/>
  <text x="700" y="385" text-anchor="middle" fill="#2a3a8f" font-family="system-ui,sans-serif" font-size="26" font-weight="700">AB0=0 · 070AB0=</text>
</svg>
